<svg width="64" height="64" viewBox="0 0 64 64" fill="none" xmlns="http://www.w3.org/2000/svg">
<rect width="64" height="64" fill="#D8C900"/>
<path d="M39 0V19C39 20.8376 38.2775 22.6017 36.9883 23.9111L24.1875 36.9111C22.8718 38.2473 21.0754 38.9999 19.2002 39H0V25H16.2686L25 16.1318V0H39Z" fill="#00467F"/>
<path d="M34.5 0V20.0244L20.2471 34.5H0V29.5H18.1533L29.5 17.9756V0H34.5Z" fill="#D8C900"/>
<path d="M25 64L25 45C25 43.1624 25.7225 41.3983 27.0117 40.0889L39.8125 27.0889C41.1282 25.7527 42.9246 25.0001 44.7998 25L64 25L64 39L47.7314 39L39 47.8682L39 64L25 64Z" fill="#00467F"/>
<path d="M29.5 64L29.5 43.9756L43.7529 29.5L64 29.5L64 34.5L45.8467 34.5L34.5 46.0244L34.5 64L29.5 64Z" fill="#D8C900"/>
</svg>
